<?xml version="1.0" encoding="utf-8"?>
<!DOCTYPE svg PUBLIC "-//W3C//DTD SVG 20010904//EN" "http://www.w3.org/TR/2001/REC-SVG-20010904/DTD/svg10.dtd">
<svg version="1.0" xmlns="http://www.w3.org/2000/svg" width="1702px" height="336px" viewBox="0 0 1702 336" preserveAspectRatio="xMidYMid meet">
 <g fill="#fffffe">
  <path d="M0 168 l0 -168 851 0 851 0 0 168 0 168 -851 0 -851 0 0 -168z"/>
 </g>
 <g fill="#0479d9">
  <path d="M253.1 188 c-4.3 -0.9 -13.1 -5.5 -13.1 -6.8 0 -0.4 0.4 -1.3 0.8 -2 0.7 -1 2.2 -0.6 6.6 1.8 4.9 2.5 6.9 3 12.8 3 6.4 0 7.2 -0.3 9.9 -2.9 5 -5.1 3.2 -10.8 -4.3 -13.4 -2.4 -0.9 -7.5 -2.5 -11.4 -3.6 -10.7 -3.1 -14.2 -7.6 -12.3 -15.9 2.3 -10.3 19.1 -14.2 30.5 -7.1 2.8 1.7 3.2 2.3 2.2 3.8 -1.1 1.8 -1.3 1.8 -5.6 -0.5 -3.1 -1.7 -6.1 -2.4 -9.9 -2.4 -8.5 0 -12.2 2.8 -12.3 9.2 0 5 2.8 7 13.6 9.7 10.8 2.7 14 4.3 15.9 8.1 3.4 6.6 1 14.1 -5.5 17.5 -3.7 1.9 -12.4 2.6 -17.9 1.5z"/>
  <path d="M312.3 187.9 c-5.4 -1.3 -12.4 -7.5 -15.3 -13.6 -4.4 -9.3 -2.3 -22.2 4.8 -29.6 12.1 -12.8 33.4 -7.1 38.6 10.4 2 6.6 2 9.2 0 15.8 -3.6 12.4 -15.9 19.8 -28.1 17z m14.2 -6.2 c13.8 -7.8 13.5 -30.4 -0.5 -37.4 -5.5 -2.8 -10.1 -2.9 -15.6 -0.3 -13.9 6.8 -14.5 29.4 -1.1 37.5 5.4 3.2 11.7 3.3 17.2 0.2z"/>
  <path d="M763.7 187.8 c-5.8 -1.6 -13.2 -8.8 -15.7 -15.6 -7.1 -18.8 8.2 -38.3 26.8 -34.1 7.8 1.7 14.8 8.3 12.1 11.5 -1 1.2 -1.7 0.9 -4.5 -2 -8.7 -9 -22.8 -6.6 -28.8 4.9 -6.7 13 1.1 30 14.3 31.3 6.4 0.6 11.3 -1.2 15 -5.3 3 -3.5 6.1 -3.9 6.1 -0.8 0 2.7 -6.9 8.2 -12.2 9.8 -5.8 1.7 -7.7 1.7 -13.1 0.3z"/>
  <path d="M823.7 187.9 c-7.5 -1.8 -14.3 -8.4 -17.3 -16.6 -5.5 -15.6 6.6 -33.6 22.6 -33.6 13.2 0 23.3 11.2 23.2 25.8 -0.1 7.4 -1.8 11.9 -6.6 17.3 -5.8 6.4 -13.9 9 -21.9 7.1z m13.3 -6 c4.2 -2.5 6.5 -5.2 8.6 -9.9 1.8 -4.2 2.1 -12.4 0.5 -17.2 -1.3 -4 -7.4 -10.2 -11.4 -11.7 -7.8 -3 -16.2 0.4 -21.2 8.3 -2.6 4.2 -3 5.9 -3 11.5 0.1 12.6 7.6 21.1 18.5 21.1 2.8 0 5.8 -0.8 8 -2.1z"/>
  <path d="M948.2 188 c-4.7 -1 -12.4 -4.9 -12.9 -6.5 -0.1 -0.5 0.1 -1.5 0.5 -2.2 0.6 -0.9 2.3 -0.4 6.6 1.7 4.6 2.4 7.2 3 12 3 7 0 10.4 -1.4 12.5 -5.1 3.4 -6 -1.1 -10.5 -13.3 -13.5 -10.1 -2.4 -14.5 -4.8 -16.2 -9 -5.8 -13.8 12 -23.9 28.4 -16.2 4.2 2 4.9 3.1 3.3 5.7 -0.7 1.1 -1.5 0.9 -4 -1 -3.8 -2.8 -13.5 -3.8 -18.2 -1.8 -3.9 1.6 -6.3 6.6 -4.9 10.3 1.3 3.4 4.3 5.2 12.5 7.2 13.9 3.4 18.5 7 18.5 14.6 0 9.7 -11.4 15.6 -24.8 12.8z"/>
  <path d="M1008.1 187.9 c-5.5 -1.1 -10.5 -4.9 -13.4 -10.2 -2 -3.8 -2.2 -5.9 -2.5 -21.9 l-0.4 -17.8 2.6 0 2.6 0 0 16.3 c0 13.6 0.3 16.8 1.9 20.2 2.9 6.3 6.2 8.8 12.5 9.3 6.8 0.5 11.7 -1.7 14.8 -6.7 2.1 -3.3 2.3 -5.1 2.8 -21.1 0.5 -17.2 0.5 -17.5 2.8 -17.8 l2.2 -0.3 0 16.3 c0 18.3 -0.8 22.3 -5.2 27.4 -5.2 5.9 -12 8 -20.7 6.3z"/>
  <path d="M1265.5 188.1 c-8.2 -2 -15.5 -9.2 -18 -17.5 -2 -6.7 -1.9 -10.5 0.6 -17.2 5.9 -15.6 24.4 -21.2 36 -10.7 4.2 3.8 4.7 5.4 2.5 7.2 -1.2 1 -1.8 0.7 -3.1 -1.3 -0.9 -1.4 -3.7 -3.5 -6.1 -4.7 -9 -4.3 -18.9 -0.7 -23.8 8.7 -3.2 6 -2.9 15.5 0.7 21.6 6.4 11 19.6 13.1 28.5 4.5 2.6 -2.5 3.2 -3.9 3.2 -7.4 l0 -4.3 -5.5 0 c-4.8 0 -5.5 -0.2 -5.5 -2 0 -1.8 0.7 -2 7.5 -2 l7.5 0 0 12.5 c0 11.8 -0.1 12.5 -2 12.5 -1.6 0 -2 -0.7 -2 -3 0 -3.5 -1 -3.8 -3.5 -1 -1 1.1 -4.1 2.7 -6.8 3.5 -5.5 1.6 -5.8 1.6 -10.2 0.6z"/>
  <path d="M1347.9 187.6 c-2.5 -0.7 -6.2 -2.4 -8.2 -3.8 -3.3 -2.2 -3.5 -2.7 -2.3 -4.3 1.3 -1.8 1.4 -1.8 4.2 0.2 6.8 4.7 18.4 5.8 24.2 2.3 2.7 -1.7 3.2 -2.5 3.2 -5.9 0 -4.8 -2.6 -7.7 -8.5 -9.2 -15.2 -4.1 -17.4 -5 -19.9 -8 -4.9 -5.8 -2.7 -14.8 4.7 -18.9 7.1 -4 18.9 -3 25.4 2.2 0.9 0.7 1 1.6 0.3 2.8 -0.9 1.8 -1.2 1.7 -5.5 -0.7 -3.9 -2.2 -5.5 -2.5 -11 -2.1 -7.1 0.4 -10 2.2 -11 6.9 -1.4 6.4 0.9 8.3 14.1 11.9 10.1 2.7 14.1 5.1 16 9.6 5.1 12.3 -8.9 21.6 -25.7 17z"/>
  <path d="M1607.2 188 c-14.7 -3.5 -22.8 -22.9 -15.4 -37.1 6.3 -12.1 19.6 -16.7 31.4 -10.8 3.5 1.8 7.8 6.2 7.8 8.1 0 2.4 -3.4 1.8 -6.3 -1 -12.2 -11.8 -30.7 -2.3 -30.7 15.7 0.1 9.1 5.1 17.3 12.3 20 6.9 2.6 16.4 0.1 20.4 -5.4 1.3 -1.8 2.4 -2.4 3.6 -1.9 2.7 1 2 3 -2.8 7.2 -6.1 5.4 -12.6 7 -20.3 5.2z"/>
  <path d="M362 163 l0 -25 16.5 0 c15.8 0 16.5 0.1 16.5 2 0 1.9 -0.7 2 -14 2 l-14 0 0 9.5 0 9.5 12 0 c11.3 0 12 0.1 12 2 0 1.9 -0.7 2 -12 2 l-12 0 0 11.5 0 11.5 -2.5 0 -2.5 0 0 -25z"/>
  <path d="M428 165 l0 -23 -9 0 c-8.3 0 -9 -0.1 -9 -2 0 -1.9 0.7 -2 20.5 -2 19.8 0 20.5 0.1 20.5 2 0 1.9 -0.7 2 -9 2 l-9 0 0 23 0 23 -2.5 0 -2.5 0 0 -23z"/>
  <path d="M484.1 186.3 c-1.2 -2.5 -20.1 -47.3 -20.1 -47.9 0 -0.3 1.2 -0.4 2.6 -0.2 2.5 0.3 3.4 2 11.4 21.6 4.8 11.6 8.9 21.4 9.2 21.7 0.2 0.2 1.9 -3.2 3.8 -7.8 1.8 -4.5 3.9 -9.6 4.6 -11.2 1.2 -3 0.3 -6.1 -7.3 -23.2 -0.3 -0.9 0.4 -1.3 2 -1.3 2.2 0 2.9 1 6 8.8 l3.5 8.7 1.7 -3.9 c0.9 -2.1 2.4 -5.9 3.4 -8.5 1.5 -3.6 2.4 -4.7 4.4 -4.9 l2.6 -0.3 -4.4 10.9 -4.4 10.9 4.7 11.1 c2.5 6.1 4.9 10.9 5.1 10.6 0.3 -0.3 4.4 -10 9.1 -21.7 8 -19.7 8.9 -21.2 11.3 -21.5 1.5 -0.2 2.7 0 2.6 0.5 0 0.4 -4.6 11.6 -10.2 24.8 -9.2 21.6 -10.5 24 -12.7 24.3 -2.4 0.3 -2.9 -0.6 -7.4 -11.3 -2.7 -6.4 -5.2 -11.7 -5.5 -11.9 -0.3 -0.2 -2.8 5 -5.6 11.5 -4.2 10.1 -5.3 11.9 -7.2 11.9 -1.2 0 -2.6 -0.8 -3.2 -1.7z"/>
  <path d="M545.4 186.3 c0.4 -1 5.1 -12.3 10.4 -25.1 9.1 -21.9 9.8 -23.3 12.1 -23 2.2 0.3 3.2 2.2 8.6 15.3 3.5 8.3 8.1 19.4 10.3 24.8 l4.1 9.7 -2.7 0 c-2.4 0 -3 -0.8 -6.1 -8 l-3.3 -8.1 -11.1 0.3 -11.1 0.3 -3.2 7.5 c-2.8 6.4 -3.6 7.5 -6 7.8 -2.2 0.3 -2.6 0.1 -2 -1.5z m31.8 -17.8 c0.5 -0.5 -7.1 -19.8 -8.8 -22.7 -0.4 -0.7 -1 -0.4 -1.7 0.7 -1.4 2.5 -8.7 20.7 -8.7 21.7 0 0.9 18.3 1.2 19.2 0.3z"/>
  <path d="M609 163 l0 -25 12.9 0 c11.6 0 13.1 0.2 16.1 2.3 1.8 1.2 4.1 3.8 5.1 5.7 2.1 3.9 2.5 11 0.8 14.3 -1.7 3.2 -6.1 7.7 -7.6 7.7 -2.1 0 -1.5 2.2 2 7.5 1.8 2.8 4.3 6.7 5.6 8.8 l2.3 3.7 -2.9 0 c-2.4 0 -3.5 -1.1 -8.5 -9 l-5.8 -9 -7.5 0 -7.5 0 0 9 c0 8.9 0 9 -2.5 9 l-2.5 0 0 -25z m26.1 1 c2.7 -1.5 4.9 -6.3 4.9 -10.9 0 -3.1 -0.7 -4.9 -2.9 -7.3 -2.9 -3.3 -3.1 -3.3 -13 -3.6 l-10.1 -0.4 0 11.6 0 11.6 9.6 0 c5.2 0 10.4 -0.5 11.5 -1z"/>
  <path d="M666 163 l0 -25 17 0 c16.3 0 17 0.1 17 2 0 1.9 -0.7 2 -14.5 2 l-14.5 0 0 9 0 9 12.5 0 12.5 0 0 2.5 0 2.5 -12.5 0 -12.5 0 0 9.5 0 9.5 14.5 0 c13.8 0 14.5 0.1 14.5 2 0 1.9 -0.7 2 -17 2 l-17 0 0 -25z"/>
  <path d="M873 163 c0 -24 0.1 -25 1.9 -25 1.3 0 7.2 6.5 18.3 20.5 l16.3 20.5 0.3 -20.5 0.2 -20.5 2.5 0 2.5 0 0 25 0 25 -2.3 0 c-1.8 0 -5.8 -4.5 -18.2 -20.1 l-16 -20.1 -0.3 20.1 -0.2 20.1 -2.5 0 -2.5 0 0 -25z"/>
  <path d="M1057 163 l0 -25 2.5 0 2.5 0 0 23 0 23 14.5 0 c13.8 0 14.5 0.1 14.5 2 0 1.9 -0.7 2 -17 2 l-17 0 0 -25z"/>
  <path d="M1114 165 l0 -23 -9 0 c-8.3 0 -9 -0.1 -9 -2 0 -1.9 0.7 -2 20.5 -2 19.8 0 20.5 0.1 20.5 2 0 1.9 -0.7 2 -9 2 l-9 0 0 23 0 23 -2.5 0 -2.5 0 0 -23z"/>
  <path d="M1155 163 l0 -25 2.5 0 2.5 0 0 25 0 25 -2.5 0 -2.5 0 0 -25z"/>
  <path d="M1184 163 c0 -24.1 0.1 -25 1.9 -25 1.4 0 7.1 6.5 18.3 20.6 l16.3 20.6 0.3 -20.6 0.2 -20.6 2.5 0 2.5 0 0 25 0 25 -2.3 0 c-1.9 0 -5.7 -4.2 -18.3 -20 l-15.9 -20.1 -0.3 20.1 -0.2 20 -2.5 0 -2.5 0 0 -25z"/>
  <path d="M1394 163 l0 -25 17 0 c16.3 0 17 0.1 17 2 0 1.9 -0.7 2 -14.5 2 l-14.5 0 0 9 0 9 12.5 0 12.5 0 0 2.5 0 2.5 -12.5 0 -12.5 0 0 9.5 0 9.5 14.5 0 c13.8 0 14.5 0.1 14.5 2 0 1.9 -0.7 2 -17 2 l-17 0 0 -25z"/>
  <path d="M1448.2 163.3 l0.3 -24.8 12 -0.3 c13.2 -0.3 16.2 0.4 20 5 6.8 8.1 4.6 19.8 -4.8 25.3 -1.5 0.9 -1.1 2 3.8 9.8 3 4.8 5.5 8.9 5.5 9.2 0 0.3 -1.1 0.5 -2.5 0.5 -2.1 0 -3.5 -1.6 -8.3 -9 l-5.7 -9.1 -7.5 0.3 -7.5 0.3 -0.3 8.8 c-0.3 8.5 -0.3 8.7 -2.8 8.7 l-2.4 0 0.2 -24.7z m27.8 -1.1 c3.8 -3.8 4.7 -8.9 2.5 -13.6 -2.6 -5.4 -5.9 -6.7 -16.3 -6.4 l-8.7 0.3 -0.3 11.3 -0.3 11.2 10.1 0 c9.8 0 10.2 -0.1 13 -2.8z"/>
  <path d="M1518.4 184.3 c-0.8 -2.1 -4.6 -11.2 -8.4 -20.3 -3.8 -9.1 -7.8 -18.6 -8.9 -21.2 l-2 -4.8 2.7 0 c2.6 0 3.1 0.9 11.1 20.8 4.6 11.4 8.7 21.1 9.1 21.5 0.7 0.7 2.1 -2.5 13.5 -30.5 4.2 -10.4 5.1 -11.8 7.1 -11.8 1.3 0 2.4 0.3 2.4 0.6 0 0.3 -4.6 11.6 -10.2 25 -9.1 21.9 -10.4 24.4 -12.5 24.4 -1.7 0 -2.7 -1 -3.9 -3.7z"/>
  <path d="M1564 163 l0 -25 2.5 0 2.5 0 0 25 0 25 -2.5 0 -2.5 0 0 -25z"/>
  <path d="M1652 163 l0 -25 16.5 0 c15.8 0 16.5 0.1 16.5 2 0 1.9 -0.7 2 -14 2 l-14 0 0 9 0 9 12 0 12 0 0 2.5 0 2.5 -12 0 -12 0 0 9.5 0 9.5 14.5 0 c13.8 0 14.5 0.1 14.5 2 0 1.9 -0.7 2 -17 2 l-17 0 0 -25z"/>
 </g>
 <g fill="#2d2af7">
  <path d="M23.1 328.1 c2.2 -6.2 16.5 -33.5 22.4 -42.6 26.6 -41.2 61.2 -67.2 95.8 -72.1 2.6 -0.3 4.7 -0.4 4.7 -0.1 0 0.3 -3.5 2.5 -7.7 5 -33.6 19.3 -75.7 59.4 -108.2 102.7 -8.2 10.9 -8.4 11.1 -7 7.1z"/>
  <path d="M23.4 291.5 c1.1 -11 5.5 -40.7 8.2 -54.8 8 -43 22 -89.7 38.1 -127.7 8.7 -20.4 23 -49.6 23.9 -48.7 0.2 0.2 -1.5 6.9 -4 14.8 -23.9 77.9 -34.2 112.3 -51.3 171.9 -7.9 27.8 -14.7 50.7 -15 51 -0.3 0.3 -0.2 -2.6 0.1 -6.5z"/>
  <path d="M206.6 223.2 c-22.1 -67.4 -44.8 -128.9 -67.1 -181.2 -4.8 -11.3 -9.8 -22.7 -11.2 -25.3 -1.3 -2.7 -2.3 -5.1 -2.1 -5.3 0.3 -0.2 2.7 2.7 5.5 6.4 26.1 34.2 52.6 95.9 68.7 159.7 6.4 25.1 15.3 68.2 14.3 69.1 -0.2 0.2 -3.8 -10.3 -8.1 -23.4z"/>
  <path d="M122.5 179.9 c-7.1 -2 -15.2 -13.6 -19.6 -27.9 -1.9 -6.3 -2.3 -9.8 -2.4 -21.5 0 -19.8 3.3 -31.3 11.4 -39.8 4.8 -5.1 8 -6.7 13.6 -6.7 5.8 0 9.5 2.5 13.1 8.6 4.6 7.8 6.4 15.5 6.4 27.2 0 14.4 -2.7 23.8 -8.5 29.9 -4.3 4.5 -6.6 5.1 -10.9 3.1 -4.3 -1.9 -6.8 -7.4 -7.3 -15.8 l-0.4 -7.5 2.5 3 c1.4 1.7 2.6 3.3 2.6 3.7 0 1.4 4.2 1.9 5.6 0.7 0.9 -0.7 2.7 -3.6 4.2 -6.3 2.2 -4.3 2.6 -6.4 2.6 -13.1 0 -8.8 -1.5 -12.8 -6 -16.4 -3.9 -3.1 -6.2 -2.6 -10.9 2.2 -5.6 5.5 -7.5 11.9 -8.2 27 -0.5 10.9 -0.4 12.3 2.2 20.2 4.3 13.3 11.8 21.2 21.7 23 3.4 0.6 3.6 0.9 2.7 2.7 -1.1 2.1 -6.7 4.9 -9.6 4.7 -1 0 -3.2 -0.5 -4.8 -1z"/>
 </g>
</svg>